HIERARCHY
ROOT Hips
{
	OFFSET -0.001795 -0.223333 0.028219
	CHANNELS 6 Xposition Yposition Zposition Zrotation Yrotation Xrotation 
	JOINT LeftUpLeg
	{
		OFFSET 0.069520 -0.091406 -0.006815
		CHANNELS 3 Zrotation Yrotation Xrotation
		JOINT LeftLeg
		{
			OFFSET 0.034277 -0.375199 -0.004496
			CHANNELS 3 Zrotation Yrotation Xrotation
			JOINT LeftFoot
			{
				OFFSET -0.013596 -0.397961 -0.043693
				CHANNELS 3 Zrotation Yrotation Xrotation
				JOINT LeftToe
				{
					OFFSET 0.026358 -0.055791 0.119288
					CHANNELS 3 Zrotation Yrotation Xrotation
					End Site
					{
						OFFSET 0.000000 0.000000 0.000000
					}
				}
			}
		}
	}
	JOINT RightUpLeg
	{
		OFFSET -0.067670 -0.090522 -0.004320
		CHANNELS 3 Zrotation Yrotation Xrotation
		JOINT RightLeg
		{
			OFFSET -0.038290 -0.382569 -0.008850
			CHANNELS 3 Zrotation Yrotation Xrotation
			JOINT RightFoot
			{
				OFFSET 0.015774 -0.398415 -0.042312
				CHANNELS 3 Zrotation Yrotation Xrotation
				JOINT RightToe
				{
					OFFSET -0.025372 -0.048144 0.123348
					CHANNELS 3 Zrotation Yrotation Xrotation
					End Site
					{
						OFFSET 0.000000 0.000000 0.000000
					}
				}
			}
		}
	}
	JOINT Spine
	{
		OFFSET -0.002533 0.108963 -0.026696
		CHANNELS 3 Zrotation Yrotation Xrotation
		JOINT Spine1
		{
			OFFSET 0.005487 0.135180 0.001092
			CHANNELS 3 Zrotation Yrotation Xrotation
			JOINT Spine2
			{
				OFFSET 0.001457 0.052922 0.025425
				CHANNELS 3 Zrotation Yrotation Xrotation
				JOINT Neck
				{
					OFFSET -0.002778 0.213870 -0.042857
					CHANNELS 3 Zrotation Yrotation Xrotation
					JOINT Head
					{
						OFFSET 0.005152 0.064970 0.051349
						CHANNELS 3 Zrotation Yrotation Xrotation
						End Site
						{
							OFFSET 0.000000 0.000000 0.000000
						}
					}
				}
				JOINT LeftShoulder
				{
					OFFSET 0.078845 0.121749 -0.034090
					CHANNELS 3 Zrotation Yrotation Xrotation
					JOINT LeftArm
					{
						OFFSET 0.090977 0.030469 -0.008868
						CHANNELS 3 Zrotation Yrotation Xrotation
						JOINT LeftForeArm
						{
							OFFSET 0.259612 -0.012772 -0.027456
							CHANNELS 3 Zrotation Yrotation Xrotation
							JOINT LeftHand
							{
								OFFSET 0.249234 0.008986 -0.001171
								CHANNELS 3 Zrotation Yrotation Xrotation
								End Site
								{
									OFFSET 0.000000 0.000000 0.000000
								}
							}
						}
					}
				}
				JOINT RightShoulder
				{
					OFFSET -0.081759 0.118833 -0.038615
					CHANNELS 3 Zrotation Yrotation Xrotation
					JOINT RightArm
					{
						OFFSET -0.096012 0.032551 -0.009143
						CHANNELS 3 Zrotation Yrotation Xrotation
						JOINT RightForeArm
						{
							OFFSET -0.253742 -0.013329 -0.021401
							CHANNELS 3 Zrotation Yrotation Xrotation
							JOINT RightHand
							{
								OFFSET -0.255298 0.007772 -0.005559
								CHANNELS 3 Zrotation Yrotation Xrotation
								End Site
								{
									OFFSET 0.000000 0.000000 0.000000
								}
							}
						}
					}
				}
			}
		}
	}
}
MOTION
Frames: 12
Frame Time: 0.050000
-0.520140 0.920572 -0.865534 -5.706744 -8.549608 -6.347802 6.499616 0.270662 2.551655 -7.218545 1.541654 13.221615 7.841702 16.561760 -4.840540 0.000000 0.000000 0.000000 -13.703722 0.255348 -16.651467 4.646900 0.707377 36.074730 -4.598073 -16.219413 24.922789 0.000000 0.000000 0.000000 3.549323 -1.221525 22.855172 -2.870145 1.449669 1.505274 -0.031180 6.121209 8.454931 9.259818 -3.824967 -19.448587 0.000000 0.000000 0.000000 -25.450490 -11.598879 3.724267 -7.237249 2.578322 -0.850665 54.047224 -26.284843 -12.686879 0.000000 0.000000 0.000000 32.383976 3.239359 0.207177 26.882903 -8.932375 -4.667384 -59.702521 39.780641 -20.192940 0.000000 0.000000 0.000000 
-0.507529 0.921607 -0.865904 -4.726593 -9.846513 -7.244217 5.109036 0.452794 5.166878 -6.848489 1.362858 10.490867 7.550120 16.149579 -4.565679 0.000000 0.000000 0.000000 -13.604046 0.305356 -14.806265 4.305420 0.914812 33.954163 -4.399476 -15.774550 21.830012 0.000000 0.000000 0.000000 3.208207 -1.050279 22.120034 -2.749819 1.383788 1.229105 -0.370057 6.433250 7.890739 8.440232 -3.341436 -19.485649 0.000000 0.000000 0.000000 -25.073906 -11.731246 3.877520 -6.835431 2.365320 -0.794280 51.447347 -23.883826 -10.820225 0.000000 0.000000 0.000000 33.709037 3.437884 0.116006 26.711769 -9.627219 -4.724126 -53.160115 38.325674 -16.836095 0.000000 0.000000 0.000000 
-0.499803 0.920954 -0.866944 -4.086426 -10.433176 -8.027669 4.209259 0.614433 6.935855 -6.475321 1.256417 9.641549 7.224129 15.529004 -5.326513 0.000000 0.000000 0.000000 -13.678003 0.305375 -13.862872 3.818435 1.086682 32.474996 -4.497928 -15.774770 20.078091 0.000000 0.000000 0.000000 3.285023 -0.991240 21.153968 -2.729074 1.372652 1.158715 -0.341216 5.744835 8.273867 7.972260 -3.274390 -19.023887 0.000000 0.000000 0.000000 -25.295353 -12.069165 4.468438 -5.375334 1.665510 -0.623320 50.171803 -20.622958 -9.012550 0.000000 0.000000 0.000000 34.077674 3.737162 -0.171178 26.584819 -9.832590 -4.665942 -48.230014 36.787739 -14.405009 0.000000 0.000000 0.000000 
-0.496880 0.920475 -0.868875 -3.335057 -10.967532 -8.525746 3.470645 0.745167 8.055051 -6.462906 1.233760 8.771514 7.083974 15.328309 -5.050840 0.000000 0.000000 0.000000 -13.923663 0.308717 -13.404381 3.287517 1.267419 31.269263 -3.953261 -14.712539 18.044986 0.000000 0.000000 0.000000 3.081658 -0.909249 20.615827 -2.593890 1.314134 1.420553 -0.145924 5.896961 7.254975 7.632131 -3.039267 -19.105330 0.000000 0.000000 0.000000 -24.674082 -11.848872 4.336916 -4.725899 0.423474 -0.535495 48.019020 -18.035948 -7.442160 0.000000 0.000000 0.000000 33.902601 3.072826 -0.769014 27.222633 -9.233382 -4.612481 -46.821214 34.143346 -12.766288 0.000000 0.000000 0.000000 
-0.498732 0.921870 -0.871986 -2.728682 -10.585526 -8.872802 2.887801 0.805818 8.530862 -6.282229 1.176093 8.590576 7.260463 15.722581 -4.635255 0.000000 0.000000 0.000000 -14.229048 0.265588 -12.779146 2.477643 1.402180 29.704305 -3.887988 -14.647151 18.298330 0.000000 0.000000 0.000000 3.128253 -0.888718 19.401780 -2.446069 1.222414 1.010029 0.212099 4.804387 8.226106 6.809318 -2.656511 -19.435113 0.000000 0.000000 0.000000 -24.393373 -11.713867 4.682094 -3.569584 -0.038741 -0.428580 46.267740 -14.937831 -5.861215 0.000000 0.000000 0.000000 34.541922 3.407764 -1.065499 27.041220 -8.341771 -4.343468 -47.439746 32.108585 -12.207345 0.000000 0.000000 0.000000 
-0.505293 0.923792 -0.876141 -2.228873 -10.167475 -9.108327 3.003248 0.803579 8.617179 -6.302611 1.139348 7.864307 7.519241 16.264173 -3.582455 0.000000 0.000000 0.000000 -14.634683 0.219570 -12.421277 2.213159 1.277467 27.522214 -3.243199 -13.701149 18.633640 0.000000 0.000000 0.000000 2.889903 -0.857952 19.173706 -1.972529 0.973883 0.821312 0.212012 4.746188 7.737566 6.590121 -2.489936 -19.511434 0.000000 0.000000 0.000000 -24.452318 -11.783238 4.668445 -1.915490 -1.138417 -0.255765 42.889957 -12.628185 -4.522371 0.000000 0.000000 0.000000 35.423046 3.045827 -1.377517 27.233171 -7.525157 -4.208586 -46.740647 30.261031 -11.196355 0.000000 0.000000 0.000000 
-0.515901 0.926284 -0.881413 -1.830696 -9.411936 -9.067999 3.196083 0.800528 8.854129 -6.123275 1.056123 7.211824 7.117680 15.284540 -2.668309 0.000000 0.000000 0.000000 -14.559114 0.192161 -12.115549 2.050221 1.165177 26.157994 -3.567780 -14.084537 18.407251 0.000000 0.000000 0.000000 2.778847 -0.860191 18.997847 -1.392478 0.679151 0.853652 0.075907 4.340586 8.083406 6.868869 -2.655067 -19.640638 0.000000 0.000000 0.000000 -23.285240 -11.364804 4.431422 -1.525277 -1.379752 -0.222898 39.739677 -12.009577 -3.922262 0.000000 0.000000 0.000000 35.546238 3.249920 -1.255075 27.943382 -6.274647 -4.092540 -46.986760 28.887174 -10.679876 0.000000 0.000000 0.000000 
-0.529764 0.927100 -0.887820 -1.400783 -8.669000 -8.965394 3.490048 0.748248 8.579482 -6.148195 1.033745 6.946395 7.242187 15.474277 -2.829912 0.000000 0.000000 0.000000 -14.654589 0.143458 -12.758476 2.280901 0.954454 25.053167 -3.763292 -14.176920 17.693140 0.000000 0.000000 0.000000 2.749941 -0.893870 19.431842 -0.688364 0.325080 1.211180 0.194777 4.428795 7.670751 6.950077 -2.583797 -20.034629 0.000000 0.000000 0.000000 -22.961476 -11.266893 4.204059 -1.687003 -1.571593 -0.240528 36.360282 -11.485566 -3.371316 0.000000 0.000000 0.000000 35.207367 3.945609 -0.519292 29.477531 -4.818312 -4.063701 -46.936163 27.109780 -9.852125 0.000000 0.000000 0.000000 
-0.545962 0.927090 -0.895037 -0.889244 -8.197548 -8.504463 3.885225 0.635539 7.518607 -6.275427 1.066040 7.429536 7.342176 15.645035 -2.118420 0.000000 0.000000 0.000000 -14.489245 0.136153 -14.107630 2.138627 0.953587 24.859201 -3.869091 -14.026282 16.252756 0.000000 0.000000 0.000000 2.627719 -0.902567 19.694654 -0.113356 0.032937 1.562638 0.271376 4.401343 7.428511 7.098582 -2.614362 -20.210066 0.000000 0.000000 0.000000 -22.049440 -10.397347 3.633940 -2.504102 -1.255612 -0.316866 32.624743 -12.520581 -3.217120 0.000000 0.000000 0.000000 35.728310 4.475179 -0.088216 30.014730 -2.646594 -3.680998 -44.765562 26.043135 -8.871457 0.000000 0.000000 0.000000 
-0.564018 0.925972 -0.902127 -0.490071 -7.312947 -7.630449 4.595004 0.499364 6.287763 -6.140532 1.020266 7.557644 7.274915 15.399214 -2.123404 0.000000 0.000000 0.000000 -14.371376 0.112783 -16.025557 2.422571 0.778626 24.567057 -4.916573 -15.576352 15.931237 0.000000 0.000000 0.000000 2.872160 -1.011042 20.577269 0.494546 -0.275791 1.279691 0.671248 4.443822 7.563049 7.248113 -2.457926 -21.572073 0.000000 0.000000 0.000000 -22.309041 -10.307024 3.476237 -3.273630 -1.368027 -0.397181 30.024836 -12.725874 -2.961358 0.000000 0.000000 0.000000 34.940669 5.501217 0.904341 31.080905 -0.567485 -3.401513 -43.468076 24.716536 -8.007848 0.000000 0.000000 0.000000 
-0.583524 0.924314 -0.908141 0.182909 -7.023224 -7.161372 4.720192 0.441302 5.583981 -5.743748 0.944780 7.908269 6.983852 14.740197 -2.154385 0.000000 0.000000 0.000000 -14.683290 0.072433 -17.278555 2.136604 0.763688 23.161319 -5.279379 -16.177443 16.087356 0.000000 0.000000 0.000000 3.126920 -1.107725 21.725476 0.750611 -0.410244 1.796900 1.100252 4.501168 7.008984 7.191449 -2.286859 -22.287409 0.000000 0.000000 0.000000 -22.373362 -10.059785 3.268598 -4.955664 -1.066286 -0.565405 28.420390 -13.802961 -2.997372 0.000000 0.000000 0.000000 34.174059 6.540561 1.724533 31.936371 1.882345 -2.908577 -42.755146 24.251178 -7.668214 0.000000 0.000000 0.000000 
-0.604162 0.921654 -0.911967 0.874200 -6.613155 -6.439510 5.190102 0.366362 4.758910 -5.490250 0.890053 8.137628 6.883877 14.461387 -2.547726 0.000000 0.000000 0.000000 -14.954642 0.026543 -18.882730 2.467884 0.599712 22.500603 -5.844966 -16.978052 15.429107 0.000000 0.000000 0.000000 3.726339 -1.301799 23.271603 1.306876 -0.696435 1.954994 1.263681 5.096480 6.429517 8.050310 -2.597028 -22.618556 0.000000 0.000000 0.000000 -22.581578 -9.821270 2.857132 -6.858922 -0.824373 -0.740569 26.973696 -15.069192 -3.089844 0.000000 0.000000 0.000000 33.306570 7.678908 2.904636 31.886598 4.453178 -2.366669 -42.535674 23.800670 -7.382525 0.000000 0.000000 0.000000 
